# xmcd CD database file
#
# Track frame offsets:
#	150
#	18954
#	35248
#	53229
#	65126
#	84087
#	95871
#	111044
#	123157
#	143510
#	156691
#	181413
#	197201
#	211868
#
# Disc length: 3053 seconds
#
# Revision: 0
# Processed by: cddbd v1.5.2PL0 Copyright (c) Steve Scherf et al.
# Submitted via: CDex 1.70beta2
#
DISCID=c80beb0e
DTITLE=B.B. and The Blues Shacks - Reservation Blues
DYEAR=2017
DGENRE=Blues
TTITLE0=Reservation Blues
TTITLE1=Lays Some Shuffle Down
TTITLE2=Mad About You
TTITLE3=I Can't Go On
TTITLE4=Year of Strife
TTITLE5=From Now On
TTITLE6=Angry Cat
TTITLE7=Not much to Loose
TTITLE8=Honeycomb
TTITLE9=All About That
TTITLE10=My Time Ain't Long
TTITLE11=Little Secrets
TTITLE12=Things Won't Change
TTITLE13=Why Can't I Go Home
EXTD=YEAR: 2017
EXTT0=
EXTT1=
EXTT2=
EXTT3=
EXTT4=
EXTT5=
EXTT6=
EXTT7=
EXTT8=
EXTT9=
EXTT10=
EXTT11=
EXTT12=
EXTT13=
PLAYORDER=
